<?xml version="1.0" encoding="UTF-8" standalone="no"?>
<svg viewBox="0 0 60 60"
  preserveAspectRatio="xMaxYMid meet"
  version="1.1" xmlns="http://www.w3.org/2000/svg" xmlns:xlink="http://www.w3.org/1999/xlink">
    <g id="Page-1" stroke="none" stroke-width="1" fill="none" fill-rule="evenodd">
        <g id="Vectors" transform="translate(-446.000000, -119.000000)" fill="#fff">
            <g id="icon" transform="translate(446.000000, 119.000000)">
                <path d="M-0.103092784,-0.103508772 L51.3402062,54.6526316 C51.3402062,54.6526316 53.0927835,55.8947368 54.4329897,54.445614 C55.7731959,52.9964912 54.742268,51.5473684 54.742268,51.5473684 L-0.103092784,-0.103508772 Z"></path>
                <path d="M16.185567,5.07192982 L55.3608247,47.5105263 C55.3608247,47.5105263 57.1134021,48.7526316 58.4536082,47.3035088 C59.7938144,45.854386 58.7628866,44.4052632 58.7628866,44.4052632 L16.185567,5.07192982 Z"></path>
                <path d="M4.74226804,16.1473684 L43.9175258,58.5859649 C43.9175258,58.5859649 45.6701031,59.8280702 47.0103093,58.3789474 C48.3505155,56.9298246 47.3195876,55.4807018 47.3195876,55.4807018 L4.74226804,16.1473684 Z"></path>
                <path d="M29.9555136,9.52280702 L57.3249271,39.1721204 C57.3249271,39.1721204 58.5493483,40.0399052 59.4856703,39.0274897 C60.4219923,38.0150741 59.7017446,37.0026585 59.7017446,37.0026585 L29.9555136,9.52280702 Z"></path>
                <path d="M8.51221466,28.9824561 L35.8816282,58.6317696 C35.8816282,58.6317696 37.1060493,59.4995544 38.0423713,58.4871388 C38.9786934,57.4747232 38.2584456,56.4623076 38.2584456,56.4623076 L8.51221466,28.9824561 Z"></path>
                <path d="M44.0206186,15.9403509 L56.4253581,29.4192325 C56.4253581,29.4192325 57.0310395,29.8258544 57.4942076,29.3514622 C57.9573758,28.8770699 57.6010926,28.4026776 57.6010926,28.4026776 L44.0206186,15.9403509 Z"></path>
                <path d="M15.3608247,42.645614 L27.7655643,56.1244957 C27.7655643,56.1244957 28.3712457,56.5311176 28.8344138,56.0567253 C29.2975819,55.582333 28.9412988,55.1079408 28.9412988,55.1079408 L15.3608247,42.645614 Z"></path>
            </g>
        </g>
    </g>
</svg>
